<svg width="32" height="32" viewBox="0 0 32 32" fill="none" xmlns="http://www.w3.org/2000/svg">
<path d="M24.5196 12.9427C24.4455 13.4531 24.1089 14.1466 23.7228 14.7495C23.2356 15.5103 22.4625 16.0431 21.5776 16.2281L17.68 17.0432C17.0535 17.1742 16.4855 17.502 16.0589 17.9788L13.5033 20.8355C13.023 21.3724 12.6873 21.2443 12.6873 20.5243C12.6815 20.5509 11.4189 23.807 14.7649 25.7369C16.0505 26.4785 17.9011 26.212 19.1867 25.4705L25.9986 21.5414C28.5461 20.072 30.3448 17.5862 30.9426 14.7087C30.9663 14.5949 30.9845 14.4806 31.0042 14.3665L24.5196 12.9427Z" fill="url(#paint0_linear_18_353)"/>
<path d="M22.7528 9.01792C24.0384 9.75947 24.5637 10.8635 24.5637 12.3466C24.5637 12.5479 24.5479 12.7468 24.5194 12.9427L27.2641 14.1217L31.004 14.3665C31.4829 11.595 30.5444 8.7422 28.862 6.47463C27.5959 4.76819 25.9667 3.28732 24.0081 2.15756C22.417 1.23984 20.7636 0.635188 19.1025 0.303406L17.2361 2.72041L16.6465 5.49577L22.7528 9.01792Z" fill="url(#paint1_linear_18_353)"/>
<path d="M0.783597 11.0518C0.782899 11.054 0.784832 11.0546 0.78556 11.0524C0.929583 10.6205 1.11018 10.1385 1.33564 9.62369C2.51334 6.9343 4.78286 5.14062 7.57492 4.22608C10.367 3.31156 13.4155 3.63212 15.9601 5.09988L16.6465 5.49578L19.1025 0.303412C11.291 -1.25676 3.30728 3.33253 0.793528 11.0217C0.792327 11.0254 0.787957 11.0382 0.783597 11.0518Z" fill="url(#paint2_linear_18_353)"/>
<path d="M18.9199 25.4705C17.6343 26.212 16.0503 26.212 14.7647 25.4705C14.5902 25.3698 14.4257 25.2567 14.2701 25.1341L12.0091 26.6886L10.0603 29.8377C12.2233 31.6378 15.0321 32.2165 17.839 31.8946C19.9513 31.6524 22.0495 30.9833 24.0082 29.8535C25.5992 28.9358 26.95 27.8076 28.0682 26.5362L26.9063 23.7129L25.0262 21.9483L18.9199 25.4705Z" fill="url(#paint3_linear_18_353)"/>
<path d="M14.2701 25.1341C13.2796 24.3539 12.6871 23.1572 12.6871 21.8754V21.7476V11.0724C12.6871 10.4687 12.865 10.3661 13.3884 10.6679C12.5823 10.203 10.7203 8.60698 8.42118 9.93311C7.13557 10.6747 6.0769 12.3115 6.0769 13.7946V21.6528C6.0769 24.5917 7.59906 27.6572 9.79448 29.6132C9.88132 29.6906 9.97122 29.7635 10.0603 29.8377L14.2701 25.1341Z" fill="url(#paint4_linear_18_353)"/>
<path d="M27.9104 5.31239C27.9089 5.31069 27.9073 5.31206 27.9089 5.31377C28.2113 5.65438 28.5388 6.05159 28.8723 6.50408C30.6148 8.86774 31.2658 11.8614 30.6626 14.7344C30.0593 17.6073 28.2571 20.0847 25.7125 21.5524L25.0261 21.9483L28.0681 26.5362C33.3264 20.5577 33.34 11.3555 27.9315 5.33604C27.9289 5.33316 27.92 5.32296 27.9104 5.31239Z" fill="url(#paint5_linear_18_353)"/>
<path d="M6.34355 13.7947C6.34354 12.3116 7.13551 10.9411 8.42113 10.1996C8.59564 10.0989 8.77601 10.0132 8.96002 9.93982L8.74304 7.20633L7.21861 4.07892C4.57671 5.05035 2.4397 7.05796 1.31528 9.64739C0.469097 11.596 9.792e-06 13.7461 0 16.0056C0 17.841 0.302549 19.5738 0.845532 21.177L3.87391 21.5833L6.34355 20.839V13.7947Z" fill="url(#paint6_linear_18_353)"/>
<path d="M8.96016 9.93982C10.1317 9.47294 11.4653 9.5587 12.5764 10.1996L12.6872 10.2635L21.5826 15.3944C22.2066 15.7543 22.1499 16.1085 21.4446 16.256L21.9578 16.1487C22.633 16.0075 23.2499 15.6624 23.7217 15.1595C24.5328 14.295 24.8306 13.2518 24.8306 12.3466C24.8306 10.8635 24.0386 9.49305 22.753 8.75151L15.9411 4.82239C13.3936 3.35298 10.3395 3.03965 7.54622 3.96113C7.43572 3.99758 7.32756 4.03891 7.21875 4.07892L8.96016 9.93982Z" fill="url(#paint7_linear_18_353)"/>
<path d="M19.3221 31.6524C19.3244 31.652 19.3239 31.65 19.3217 31.6504C18.8752 31.7418 18.3672 31.8265 17.8081 31.8889C14.888 32.2146 11.9674 31.2811 9.77864 29.3226C7.58986 27.3642 6.34347 24.5663 6.34348 21.6308L6.34347 20.839L0.845459 21.177C3.3988 28.7157 11.3689 33.3286 19.2911 31.6589C19.2949 31.6581 19.3082 31.6555 19.3221 31.6524Z" fill="url(#paint8_linear_18_353)"/>
<defs>
<linearGradient id="paint0_linear_18_353" x1="20.0602" y1="23.7699" x2="23.2077" y2="12.8068" gradientUnits="userSpaceOnUse">
<stop stop-color="#1724C9"/>
<stop offset="1" stop-color="#1C64F2"/>
</linearGradient>
<linearGradient id="paint1_linear_18_353" x1="27.3093" y1="10.4003" x2="19.0297" y2="2.1498" gradientUnits="userSpaceOnUse">
<stop stop-color="#1C64F2"/>
<stop offset="1" stop-color="#0092FF"/>
</linearGradient>
<linearGradient id="paint2_linear_18_353" x1="16.1645" y1="5.02115" x2="3.67432" y2="5.8104" gradientUnits="userSpaceOnUse">
<stop stop-color="#0092FF"/>
<stop offset="1" stop-color="#45B2FF"/>
</linearGradient>
<linearGradient id="paint3_linear_18_353" x1="15.3198" y1="28.6627" x2="26.5366" y2="25.6359" gradientUnits="userSpaceOnUse">
<stop stop-color="#1C64F2"/>
<stop offset="1" stop-color="#0092FF"/>
</linearGradient>
<linearGradient id="paint4_linear_18_353" x1="7.26881" y1="15.6827" x2="15.2325" y2="23.9347" gradientUnits="userSpaceOnUse">
<stop stop-color="#1724C9"/>
<stop offset="1" stop-color="#1C64F2"/>
</linearGradient>
<linearGradient id="paint5_linear_18_353" x1="25.4504" y1="21.6357" x2="31.0069" y2="10.4345" gradientUnits="userSpaceOnUse">
<stop stop-color="#0092FF"/>
<stop offset="1" stop-color="#45B2FF"/>
</linearGradient>
<linearGradient id="paint6_linear_18_353" x1="5.36387" y1="9.13098" x2="2.39054" y2="20.3066" gradientUnits="userSpaceOnUse">
<stop stop-color="#1C64F2"/>
<stop offset="1" stop-color="#0092FF"/>
</linearGradient>
<linearGradient id="paint7_linear_18_353" x1="20.5432" y1="8.59942" x2="9.6778" y2="11.3047" gradientUnits="userSpaceOnUse">
<stop stop-color="#1724C9"/>
<stop offset="1" stop-color="#1C64F2"/>
</linearGradient>
<linearGradient id="paint8_linear_18_353" x1="6.40667" y1="21.3567" x2="13.3324" y2="31.7747" gradientUnits="userSpaceOnUse">
<stop stop-color="#0092FF"/>
<stop offset="1" stop-color="#45B2FF"/>
</linearGradient>
</defs>
</svg>
